<?xml version="1.0" encoding="utf-8"?>
<!-- Generator: Adobe Illustrator 19.0.0, SVG Export Plug-In . SVG Version: 6.00 Build 0)  -->
<svg version="1.1" xmlns="http://www.w3.org/2000/svg" xmlns:xlink="http://www.w3.org/1999/xlink" x="0px" y="0px"
   viewBox="0 0 428.6 344.2" style="enable-background:new 0 0 428.6 344.2;" xml:space="preserve">
<style type="text/css">
  .st0{display:none;}
  .st1{display:inline;fill:#C9DCEC;}
  .st2{display:inline;}
  .st3{clip-path:url(#XMLID_2_);}
  .st4{fill:none;stroke:#DFE9F1;stroke-linecap:round;stroke-linejoin:round;stroke-miterlimit:10;}
  .st5{fill:#BDC1C5;}
</style>
<g id="BACKGROUND" class="st0">
  <rect id="XMLID_221_" x="-35.7" y="-99.9" class="st1" width="500" height="500"/>
  <g class="st2">
    <defs>
      <rect id="XMLID_62_" x="-35.7" y="-99.9" width="500" height="500"/>
    </defs>
    <clipPath id="XMLID_2_">
      <use xlink:href="#XMLID_62_"  style="overflow:visible;"/>
    </clipPath>
    <g class="st3">
      <line class="st4" x1="1018" y1="-154.9" x2="306.1" y2="557"/>
      <line class="st4" x1="1001.8" y1="-155" x2="289.8" y2="556.9"/>
      <line class="st4" x1="985.6" y1="-155.2" x2="273.6" y2="556.8"/>
      <line class="st4" x1="969.3" y1="-155.3" x2="257.4" y2="556.6"/>
      <line class="st4" x1="953.1" y1="-155.4" x2="241.1" y2="556.5"/>
      <line class="st4" x1="936.8" y1="-155.6" x2="224.9" y2="556.4"/>
      <line class="st4" x1="920.6" y1="-155.7" x2="208.7" y2="556.3"/>
      <line class="st4" x1="904.4" y1="-155.8" x2="192.4" y2="556.1"/>
      <line class="st4" x1="888.1" y1="-155.9" x2="176.2" y2="556"/>
      <line class="st4" x1="871.9" y1="-156.1" x2="160" y2="555.9"/>
      <line class="st4" x1="855.7" y1="-156.2" x2="143.7" y2="555.7"/>
      <line class="st4" x1="839.4" y1="-156.3" x2="127.5" y2="555.6"/>
      <line class="st4" x1="823.2" y1="-156.5" x2="111.3" y2="555.5"/>
      <line class="st4" x1="807" y1="-156.6" x2="95" y2="555.4"/>
      <line class="st4" x1="790.7" y1="-156.7" x2="78.8" y2="555.2"/>
      <line class="st4" x1="774.5" y1="-156.8" x2="62.6" y2="555.1"/>
      <line class="st4" x1="758.3" y1="-157" x2="46.3" y2="555"/>
      <line class="st4" x1="742" y1="-157.1" x2="30.1" y2="554.8"/>
      <line class="st4" x1="725.8" y1="-157.2" x2="13.9" y2="554.7"/>
      <line class="st4" x1="709.6" y1="-157.4" x2="-2.4" y2="554.6"/>
      <line class="st4" x1="693.3" y1="-157.5" x2="-18.6" y2="554.5"/>
      <line class="st4" x1="677.1" y1="-157.6" x2="-34.9" y2="554.3"/>
      <line class="st4" x1="660.9" y1="-157.7" x2="-51.1" y2="554.2"/>
      <line class="st4" x1="644.6" y1="-157.9" x2="-67.3" y2="554.1"/>
      <line class="st4" x1="628.4" y1="-158" x2="-83.6" y2="553.9"/>
      <line class="st4" x1="612.1" y1="-158.1" x2="-99.8" y2="553.8"/>
      <line class="st4" x1="595.9" y1="-158.3" x2="-116" y2="553.7"/>
      <line class="st4" x1="579.7" y1="-158.4" x2="-132.3" y2="553.5"/>
      <line class="st4" x1="563.4" y1="-158.5" x2="-148.5" y2="553.4"/>
      <line class="st4" x1="547.2" y1="-158.7" x2="-164.7" y2="553.3"/>
      <line class="st4" x1="531" y1="-158.8" x2="-181" y2="553.2"/>
      <line class="st4" x1="514.7" y1="-158.9" x2="-197.2" y2="553"/>
      <line class="st4" x1="498.5" y1="-159" x2="-213.4" y2="552.9"/>
      <line class="st4" x1="482.3" y1="-159.2" x2="-229.7" y2="552.8"/>
      <line class="st4" x1="466" y1="-159.3" x2="-245.9" y2="552.6"/>
      <line class="st4" x1="449.8" y1="-159.4" x2="-262.1" y2="552.5"/>
      <line class="st4" x1="433.6" y1="-159.6" x2="-278.4" y2="552.4"/>
      <line class="st4" x1="417.3" y1="-159.7" x2="-294.6" y2="552.3"/>
      <line class="st4" x1="401.1" y1="-159.8" x2="-310.9" y2="552.1"/>
      <line class="st4" x1="384.9" y1="-159.9" x2="-327.1" y2="552"/>
      <line class="st4" x1="368.6" y1="-160.1" x2="-343.3" y2="551.9"/>
      <line class="st4" x1="352.4" y1="-160.2" x2="-359.6" y2="551.7"/>
      <line class="st4" x1="336.1" y1="-160.3" x2="-375.8" y2="551.6"/>
      <line class="st4" x1="319.9" y1="-160.5" x2="-392" y2="551.5"/>
      <line class="st4" x1="303.7" y1="-160.6" x2="-408.3" y2="551.4"/>
      <line class="st4" x1="287.4" y1="-160.7" x2="-424.5" y2="551.2"/>
      <line class="st4" x1="271.2" y1="-160.8" x2="-440.7" y2="551.1"/>
      <line class="st4" x1="255" y1="-161" x2="-457" y2="551"/>
      <line class="st4" x1="238.7" y1="-161.1" x2="-473.2" y2="550.8"/>
      <line class="st4" x1="222.5" y1="-161.2" x2="-489.4" y2="550.7"/>
      <line class="st4" x1="206.3" y1="-161.4" x2="-505.7" y2="550.6"/>
      <line class="st4" x1="190" y1="-161.5" x2="-521.9" y2="550.5"/>
      <line class="st4" x1="173.8" y1="-161.6" x2="-538.1" y2="550.3"/>
      <line class="st4" x1="157.6" y1="-161.7" x2="-554.4" y2="550.2"/>
      <line class="st4" x1="141.3" y1="-161.9" x2="-570.6" y2="550.1"/>
      <line class="st4" x1="125.1" y1="-162" x2="-586.8" y2="549.9"/>
      <line class="st4" x1="108.9" y1="-162.1" x2="-603.1" y2="549.8"/>
      <line class="st4" x1="92.6" y1="-162.3" x2="-619.3" y2="549.7"/>
      <line class="st4" x1="76.4" y1="-162.4" x2="-635.6" y2="549.6"/>
      <line class="st4" x1="60.2" y1="-162.5" x2="-651.8" y2="549.4"/>
      <line class="st4" x1="43.9" y1="-162.6" x2="-668" y2="549.3"/>
      <line class="st4" x1="27.7" y1="-162.8" x2="-684.3" y2="549.2"/>
    </g>
    <g class="st3">
      <line class="st4" x1="1014.3" y1="-158.8" x2="302.3" y2="553.1"/>
      <line class="st4" x1="998" y1="-158.9" x2="286.1" y2="553"/>
      <line class="st4" x1="981.8" y1="-159.1" x2="269.9" y2="552.9"/>
      <line class="st4" x1="965.6" y1="-159.2" x2="253.6" y2="552.7"/>
      <line class="st4" x1="949.3" y1="-159.3" x2="237.4" y2="552.6"/>
      <line class="st4" x1="933.1" y1="-159.5" x2="221.1" y2="552.5"/>
      <line class="st4" x1="916.9" y1="-159.6" x2="204.9" y2="552.3"/>
      <line class="st4" x1="900.6" y1="-159.7" x2="188.7" y2="552.2"/>
      <line class="st4" x1="884.4" y1="-159.8" x2="172.4" y2="552.1"/>
      <line class="st4" x1="868.1" y1="-160" x2="156.2" y2="552"/>
      <line class="st4" x1="851.9" y1="-160.1" x2="140" y2="551.8"/>
      <line class="st4" x1="835.7" y1="-160.2" x2="123.7" y2="551.7"/>
      <line class="st4" x1="819.4" y1="-160.4" x2="107.5" y2="551.6"/>
      <line class="st4" x1="803.2" y1="-160.5" x2="91.3" y2="551.4"/>
      <line class="st4" x1="787" y1="-160.6" x2="75" y2="551.3"/>
      <line class="st4" x1="770.7" y1="-160.8" x2="58.8" y2="551.2"/>
      <line class="st4" x1="754.5" y1="-160.9" x2="42.6" y2="551.1"/>
      <line class="st4" x1="738.3" y1="-161" x2="26.3" y2="550.9"/>
      <line class="st4" x1="722" y1="-161.1" x2="10.1" y2="550.8"/>
      <line class="st4" x1="705.8" y1="-161.3" x2="-6.1" y2="550.7"/>
      <line class="st4" x1="689.6" y1="-161.4" x2="-22.4" y2="550.5"/>
      <line class="st4" x1="673.3" y1="-161.5" x2="-38.6" y2="550.4"/>
      <line class="st4" x1="657.1" y1="-161.7" x2="-54.8" y2="550.3"/>
      <line class="st4" x1="640.9" y1="-161.8" x2="-71.1" y2="550.2"/>
      <line class="st4" x1="624.6" y1="-161.9" x2="-87.3" y2="550"/>
      <line class="st4" x1="608.4" y1="-162" x2="-103.6" y2="549.9"/>
      <line class="st4" x1="592.2" y1="-162.2" x2="-119.8" y2="549.8"/>
      <line class="st4" x1="575.9" y1="-162.3" x2="-136" y2="549.6"/>
      <line class="st4" x1="559.7" y1="-162.4" x2="-152.3" y2="549.5"/>
      <line class="st4" x1="543.4" y1="-162.6" x2="-168.5" y2="549.4"/>
      <line class="st4" x1="527.2" y1="-162.7" x2="-184.7" y2="549.3"/>
      <line class="st4" x1="511" y1="-162.8" x2="-201" y2="549.1"/>
      <line class="st4" x1="494.7" y1="-162.9" x2="-217.2" y2="549"/>
      <line class="st4" x1="478.5" y1="-163.1" x2="-233.4" y2="548.9"/>
      <line class="st4" x1="462.3" y1="-163.2" x2="-249.7" y2="548.7"/>
      <line class="st4" x1="446" y1="-163.3" x2="-265.9" y2="548.6"/>
      <line class="st4" x1="429.8" y1="-163.5" x2="-282.1" y2="548.5"/>
      <line class="st4" x1="413.6" y1="-163.6" x2="-298.4" y2="548.4"/>
      <line class="st4" x1="397.3" y1="-163.7" x2="-314.6" y2="548.2"/>
      <line class="st4" x1="381.1" y1="-163.8" x2="-330.8" y2="548.1"/>
      <line class="st4" x1="364.9" y1="-164" x2="-347.1" y2="548"/>
      <line class="st4" x1="348.6" y1="-164.1" x2="-363.3" y2="547.8"/>
      <line class="st4" x1="332.4" y1="-164.2" x2="-379.6" y2="547.7"/>
      <line class="st4" x1="316.2" y1="-164.4" x2="-395.8" y2="547.6"/>
      <line class="st4" x1="299.9" y1="-164.5" x2="-412" y2="547.5"/>
      <line class="st4" x1="283.7" y1="-164.6" x2="-428.3" y2="547.3"/>
      <line class="st4" x1="267.4" y1="-164.7" x2="-444.5" y2="547.2"/>
      <line class="st4" x1="251.2" y1="-164.9" x2="-460.7" y2="547.1"/>
      <line class="st4" x1="235" y1="-165" x2="-477" y2="546.9"/>
      <line class="st4" x1="218.7" y1="-165.1" x2="-493.2" y2="546.8"/>
      <line class="st4" x1="202.5" y1="-165.3" x2="-509.4" y2="546.7"/>
      <line class="st4" x1="186.3" y1="-165.4" x2="-525.7" y2="546.5"/>
      <line class="st4" x1="170" y1="-165.5" x2="-541.9" y2="546.4"/>
      <line class="st4" x1="153.8" y1="-165.7" x2="-558.1" y2="546.3"/>
      <line class="st4" x1="137.6" y1="-165.8" x2="-574.4" y2="546.2"/>
      <line class="st4" x1="121.3" y1="-165.9" x2="-590.6" y2="546"/>
      <line class="st4" x1="105.1" y1="-166" x2="-606.8" y2="545.9"/>
      <line class="st4" x1="88.9" y1="-166.2" x2="-623.1" y2="545.8"/>
      <line class="st4" x1="72.6" y1="-166.3" x2="-639.3" y2="545.6"/>
      <line class="st4" x1="56.4" y1="-166.4" x2="-655.5" y2="545.5"/>
      <line class="st4" x1="40.2" y1="-166.6" x2="-671.8" y2="545.4"/>
      <line class="st4" x1="23.9" y1="-166.7" x2="-688" y2="545.3"/>
    </g>
  </g>
</g>
<g id="OBJECTS">
  <g>
    <path class="st5" d="M428.4,36.4c-2.4-2.1,0.4-5.2-3.2-5.1c-1.8,0.1-3.2,2.8-4.5,3.7c-1.7,1.2-3.9,3.5-5.9,4.7
      c-1.6,1-8.2,4.9-10.3,3.8c-2.5-1.3-2.5-4.9-3.6-6.4c-2.6-3.3-1.6-1.7-3.8-3.3c-0.8-0.6-5.4-3.4-6.4-3.7c-1.7-0.6-7,1.6-7.9,1.4
      c-8.7-2.5-13.1-19.2-17.8-25.4c-3.6-4.6-6.5-4.7-12.5-5.6c-6.2-0.9-15.8-1.6-22,3.3c-2,1.5-4.7,4.8-4.4,7.5
      c-0.1-0.8,3.5-0.3,4.1,2c1.2,4.5-1.1,5-3.3,10.1c-0.8,1.8-1.6,4.4-2.1,6.3c-0.7,2.7,0.3,5-0.9,6.7c-3.9,6-9.7,5.2-14.6,4.2
      c-1.4,3.1-7.4,14.1-6.6,17c1.6,6.2,8.1-0.3,12.1,3.2c-2.8-2.4,7-4,8.3-3.6c2.7,0.9,4.4,3.4,6.2,5.4c6.4,7.2-0.2,4.5-6.5,5.7
      c-4,0.8-4.3,4.1-6.4,5.4c-2.3,1.4-2.5-2-5.3,1.1c-3.1,3.4-0.6,4.2-4.6,6.8c-2,1.3-6.1,1.1-7.1,1.8c-3.3,2.2-2.8,6.3-7.4,7.4
      c-3.3,0.8-7.9-3.7-10.7-2.2c-6.4,3.4,1.1,10,0.5,13c-0.3,1.6-7.1,7.1-8.4,8c-6.6,4.9-11.7,5-20.2,6.3c-4.9,0.8-21.9,11.5-23,5.4
      c-5.7,2.7-12.7-2-17.7-4c-3.4-1.3-3.9-2.4-9.1-2.8c-4.2-0.3-6.3-0.2-10.4-0.2c-4.6,0-13.8-0.6-17.9-2.6
      c-3.5-1.8-8.9-12.9-7.6-15.2c-0.6,1.1-15.6-8.3-17.8-8.9c-3.1-0.7-11.5-0.3-13.1-4c-1.8-4.4,3.7-8.3,3.2-12.5
      c-0.7-6-4.1-11.4-8.1-13.5c-4.7-2.5-3.9-0.6-7.2-5.6c-2-3-4.3-3.8-3.1-7.6c-3.3,0.8-3.3,0.4-5-1c-1.9,0.6-1.8,2.3-2.9,2.8
      c0.5-0.2-4.2,3.9-3.8,3.3c-0.9,1.1-2.9,1.2-4.1,3.2c-1.1,1.9,0.7,5.6-0.3,7.1c-4.5,6.7-13.1-2.8-18.1,0.7c-2.7,1.9-4,7.2-4.9,10.2
      c-1.2,4.1,2.2,3.4-1.8,4.7c-1.6,0.5-17.8-4.4-16.7,0.9c1.1,0.6,2.3,0.8,3.6,0.7c-2.1-0.6-0.5,9.4-0.5,9.8c-0.3,5.1-0.9,3.4-2,6.3
      c-3,8.3-4.1,6.8-12.8,9.6c-2.7,0.9-5.6,4.1-8.7,4.6c-4.4,0.8-7.9-0.6-11.9,0.9c-1.7,0.7-1.4,2.7-4.7,3c-1.3,0.1-3.2,0-3.8-0.1
      c2.8,0.2-8.2-4-6.7-2.2c1.3,1.6-9.2,2.6-10.4,3.4c-3.1,1.8-7.2,7.5-6.1,10.6c2.1,5.8,7.2,0.7,7.7,9.9c0,0.2-0.3,5,0.2,4.3
      c-0.7,1.1-5.1,1.8-5.2,2.5c0.2-2,8.1,6.8,8.7,8c3.5,7.6,5.6,11.3,15,12.3c-6.1-0.7,5,11.1,5,10.9c0.9,3-3.1,7.3-2.7,10.2
      c0.2,1.5,5.8,5.8,3.6,8.5c-1.8,2.3-5.7,1.4-5.9-2.2c-0.8,0-1.6,0-2.6,0c-0.6,4.2,1.3,8.8,1.3,13.3c0.6-0.4,1.2-0.9,1.8-1.4
      c1.5,4.3,4.6,5.8,7.5,8.3c0.9,0.8,5,6.4,6.8,7.2c2.3,1,2.9-2.7,7.6,0.1c3.5,2.1,9.2,9,11.4,11.1c0,0,1.8-0.6,2.4,0
      c0.6,0.6,1,3.4,1.1,3.5c1.7,1.2,3.1,5.5,5.7,3.9c-1.7,1.1,2.1,3.1,2.4,3.4c2.6,2.3,2.1-0.1,3.9,4.2c1,0.3,1.6-0.1,1.8-1.4
      c-0.3,0.7,11.4,4.4,14.7,4.3c9.2-0.3,6.2-0.5,6.9,7c-0.2-2,7.1-6,8.2-6.3c5.2-1.5,4.1,0.7,6.9,1.9c4.6,1.9,9.4,4.3,14.4,3.7
      c7.2-0.9,11.5-8.8,18.9-10.2c2.8-0.5,3.7,2.5,6.6,2.6c0,0,10.1-5.9,8.6-1.3c-0.3,0.7-3,1.4-2.6,2.4c0.6,1.7,2.2,0,3.1-0.3
      c1.1,2.6-2.5,5.3-1.6,6.3c0,0,10.5-0.2,9.2,2.1c4-6.6,3.7-3.2,7.3,1.4c3.3,4.2,5.2,7.5,3.3,15.3c-2.1,8.5-11,9.4-9.8,20.5
      c-0.1-0.5,10.7-2.6,10.7-2.6c0.6,4.9-0.7,6.8,1.3,10.6c1.1,2.2,2.4-0.7,3.2,3.2c0.2,1.2-2,5-2.5,6.5c1.2-3.5,8.5,4.7,7.1,3.8
      c2.6,1.7,4.3,4,8.6-0.5c-1.4,1.5,4.3,8.9,7,6.3c1.5-1.4-1.5-9.6-0.9-12.3c-0.2,1,6.4,0.4,6.2,0.4c0.8,0.1,10.6,1.6,9-1.5
      c-0.1,1.2,0.3,2,1.2,2.2c0.9-1.6,1.3-2,2.7,0.6c-1.2-2.1,5.5-3,6.5-3.7c4.4-2.9,2.9-3.5,8-3.2c0.5,0,6.1,2,6.4,2.2
      c4,2,2.1,0.1,4,3.4c1.3,2.3,0.2,4.1,3.1,6.5c2.2,1.8,3,1.7,6.1,2.3c1.3,0.2,10-0.9,7.9-2c1.3,0.7,1.4,1.8,3.8,1.7
      c0.8,0,2.3,1.5,3.1,1.7c1.3,0.2,2.1-2.3,2.2-2.3c-0.1,0,2.9,1.8,2.8,1.8c0.1,0.1-3.8,14.4,4.3,10.9c4.7-2.1-2.4-5-2.3-6.2
      c0.4-3.8,2.8-3.2,4.3-4.7c-0.5,0.5,4.1,0.2,4.7,0c1.9-0.8,3.2-2.2,5.2-3c1.7-0.7,3.7-0.6,4.9-1.1c2.7-1-0.3-1.1,0.8-3
      c-0.7,1.1,4.6,1.7,5.5,0.4c0.8-1.1-1.8-7,0.1-7.1c1.2-0.1,2,6.5,4.1,5.7c2.7-1.1-3.3-7.1-1-8.3c0.7-0.4,5.4,7.3,5.3,7.1
      c0.3,0.3-1.1,1.5-0.6,1.6c0.5,0.1,0.8-0.9,1.3-0.8c0.1,0-1.6,3.4-1.2,3.2c2.4-3.3,2.2-4.2,2.7-7.9c-0.2,1.3,12.2-4.3,11.6-4.5
      c1.5,0.5,5.3,0.2,7-1.4c0.8-0.7,0.5-2.3,1.4-3.1c1-0.9,2.8-2.3,3.7-3.1c1-1,8.1-6.2,7.5-8c-0.4-1.1-2.1,0.5-2.3-0.8
      c-0.6-2.8,6.2-1.9,6-1.8c1.6-0.4-0.1-3.2,0.1-3.3c0.9-0.4,3.1-4.9,2.1-5c0,0.8,0.3,1.1,0.9,0.8c0,0,0.2-1.8,0.6-1.5
      c0.2,0.6,0.2,1.3,0.1,2c1.4,1.9,3.2-11.5,4.1-12.2c0.1-0.1-1.9-1.6-1-3.1c0.9-1.5,2.2,0.1,2.5-0.5c0.3-0.7,1.8-5.6,0.8-4.6
      c1.3-1.2,2.1,1,2.7,0.5c0.6-0.5,2.8-11.9,4-11.9c0.4,0.7,0.9,0.9,1.5,0.6c0.8-4,1.5-5.8-0.9-8c-1.7-1.6,3.1-2,3-2.7
      c0.5,2.2,1.7-1.9,0.6-2.8c-0.2-0.1-3.2,3.6-4,2c-0.1-0.1,4.5-4.5,4.8-3.7c-0.1-0.3-0.1-0.4,0.1-0.6c1-3.3-17.8-3.1-15.7-1.3
      c-0.2-0.2,8.2-5.2,9.1-6.4c2.2-3,4.6-1.9,0.4-6.4c-1.1-1.2-8.7-3.5-8.1-4.9c1-2.1,8.5,3.4,10,2.4c0.7-0.5-9.2-10.3-10.2-11.9
      c-3.1-5-3.7-12.8-10.3-11.4c-0.8-6.3-6-1.3-3.3-8.9c0.7-2,1.9-3,2.7-4.8c0.5-1.1,0.7-4.2,0.5-3.8c1.2-2.1,3.6,1.2,4.4-0.1
      c1.2-1.7-0.4-1.4,1.1-2.8c1.1-1.1-1-1.6-0.4-2.3c-0.1,0.1,8.1-5.1,7.8-5.1c-0.1,0,0.2,1.7,0.8,1.1c0.2-0.2,0.4-1.2,0.9-1.2
      c2.4,0.1,4.1-3.9-1.9-5.2c0.3,0.1-4.7,0.4-4.9,0.4c-3-0.2-3.9-2.2-7.3-0.7c-3.7,1.6-2.5,8.8-8.2,7.4c-3.7-0.9-3.1-14-8.5-5
      c1.9-3.2-10.8-6.7-3.9-13.5c1.2-1.2,6.4,0.8,8.7-1.8c1.5-1.7,1.5-4,3.2-6.2c1.5-1.9,4-2.6,5.3-4.3c1.3-1.5,1.3-3.4,3-5
      c0.9-0.8,5.1-2.6,5.6-3.9c-0.2,0.6,3.4,2.4,3.7,3.4c0.6,2.1-0.7,2.9-1.2,4.7c-0.2,0.6-4.5,6.4-4,6.7c0.5,0.3,1.2-0.5,1.7-0.7
      c0,0.3-1.4,2-1.2,2c0.7-0.1,4.5-0.8,4.5-0.8c0,0-6.9,7-5.1,7.7c2.6,1,10.6-9.8,12.7-11.3c2.6-1.8,6.1-2.4,9.4-5.4
      c4.2-3.9,8.2-9.3,11.3-13.8c0.8-1.2,1.3-4.8,2.9-5.5c0.6-0.3,3.4,2.3,5,2.2c2.3-0.3,4.3-1.5,5.1-2.5c0.9-1.1-2.7-2.2-1.6-3.8
      c1.6-2.4,6.4-2.9,8.2-6.4c-0.2,0.3,2.3-6.1,1.7-5.9c0.5-0.2,5.6,3.5,5.6,3.5c1-3.9,2.9-5.8,2.7-10.4c-0.1-2.1-1.7-6-2.2-8.3
      c-1-5.3-2.9-0.6,0.3-5.6c1.9-3,0.8-2.5,3.1-3.5c6.3-2.9,6.2,0.7,8.1-7C426.3,55.8,428.5,36.5,428.4,36.4
      C428,36,428.9,36.9,428.4,36.4z"/>
    <path class="st5" d="M285.4,326.7c-3.2-0.2-8.9,1.5-10.2,2.2c-6.5,3.4-9.8,13.8,0,15.3C284.9,345.6,293.3,327.3,285.4,326.7
      C285,326.6,287,326.8,285.4,326.7z"/>
    <path class="st5" d="M368.9,208.1c0.5,0.2-4-1.5-4-1c-0.2,1.1,3.7,2.4,4.7,2.2C370,208.7,369.8,208.3,368.9,208.1
      C368.2,207.9,369.2,208.2,368.9,208.1z"/>
    <path class="st5" d="M380.9,269.4c-4.6-4.5-8.5,1.4-10.5,5.3c-2.3,4.3-4.4,9.6-3.8,13.7c0.1,0.5,1.8,7.1,3.1,6.9
      c-0.1,0-0.9-0.7-0.8-0.6c0.8,1.4,2.2,0.5,1.8,0.2c0.5,0.3,4.4,6.5,4.8,5.6c1.1-2.4,1.8-9.9,2.7-13.2c1.1-4.2,1.5-8.5,2.3-12.4
      C380.2,275.1,379.8,268.3,380.9,269.4C380.9,269.4,380.9,269.4,380.9,269.4z"/>
  </g>
</g>
<g id="DESIGNED_BY_FREEPIK">
</g>
</svg>
